<?xml version="1.0" standalone="no"?>
<!DOCTYPE svg PUBLIC "-//W3C//DTD SVG 20010904//EN"
 "http://www.w3.org/TR/2001/REC-SVG-20010904/DTD/svg10.dtd">
<svg version="1.0" xmlns="http://www.w3.org/2000/svg"
 width="700.000000pt" height="700.000000pt" viewBox="0 0 700.000000 700.000000"
 preserveAspectRatio="xMidYMid meet">
<metadata>
Created by potrace 1.11, written by Peter Selinger 2001-2013
</metadata>
<g transform="translate(0.000000,700.000000) scale(0.100000,-0.100000)"
fill="#000000" stroke="none">
<path d="M1457 5894 c-1 -1 -43 -4 -94 -8 -188 -13 -394 -87 -518 -186 -66
-53 -77 -65 -121 -130 -85 -123 -95 -263 -31 -393 97 -197 327 -331 635 -370
56 -8 107 -10 115 -6 9 6 13 28 13 76 l-1 68 -50 2 c-78 2 -180 13 -255 27
-90 17 -210 55 -210 67 0 4 -9 9 -19 12 -11 2 -27 19 -36 37 -15 29 -15 34 0
56 8 13 37 35 64 49 109 55 296 86 537 89 64 1 119 -1 123 -4 4 -3 7 -923 6
-2045 0 -1122 1 -2046 3 -2052 3 -10 63 -13 257 -13 194 0 254 3 257 13 2 6 3
931 3 2055 -1 1831 1 2042 15 2043 8 1 237 2 507 3 l493 1 2 -763 c3 -756 3
-762 -17 -763 -25 -1 -318 -1 -325 0 -3 1 -25 34 -49 75 l-44 73 -162 1 -163
1 24 -42 c14 -23 51 -85 84 -137 33 -52 59 -98 60 -101 0 -3 -36 -69 -80 -145
-44 -76 -80 -142 -80 -147 0 -4 71 -7 159 -6 l158 0 39 70 39 69 178 0 177 0
0 -800 0 -800 200 0 200 0 0 800 0 800 1413 0 1413 0 -2 -57 -1 -57 66 70
c124 132 171 188 164 193 -8 6 -125 136 -189 209 -16 17 -31 32 -34 32 -3 0
-6 -23 -5 -52 l0 -51 -1410 0 -1410 0 -3 791 -2 791 42 -5 c24 -2 67 -6 97 -9
54 -4 121 -13 171 -21 14 -2 52 -8 85 -14 33 -5 114 -23 180 -39 564 -139
1050 -454 1329 -864 94 -138 179 -317 212 -449 9 -34 20 -67 24 -72 7 -7 202
-12 293 -7 17 1 18 7 12 54 -12 84 -70 286 -119 410 -176 443 -485 819 -906
1102 -147 98 -350 205 -505 265 -60 23 -119 46 -130 51 -78 33 -395 107 -535
124 -25 3 -61 7 -80 10 -103 13 -367 17 -1268 19 -547 0 -994 0 -995 0z"/>
<path d="M5706 3348 c-2 -7 -9 -40 -16 -73 -28 -140 -95 -311 -178 -451 -279
-477 -852 -852 -1502 -983 -91 -19 -103 -21 -150 -27 -25 -3 -54 -8 -65 -10
-22 -4 -134 -15 -210 -19 -27 -2 -339 -4 -692 -5 l-643 -1 0 -305 0 -305 713
4 c391 2 730 7 753 10 50 8 312 54 339 60 131 30 330 95 466 152 164 70 219
99 444 238 11 6 62 44 115 82 396 292 696 701 842 1150 16 50 31 97 33 105 43
188 51 233 61 328 l6 62 -156 0 c-117 0 -158 -3 -160 -12z"/>
</g>
</svg>
