<?xml version="1.0" encoding="UTF-8" standalone="no"?>
<svg
   xmlns:dc="http://purl.org/dc/elements/1.1/"
   xmlns:cc="http://creativecommons.org/ns#"
   xmlns:rdf="http://www.w3.org/1999/02/22-rdf-syntax-ns#"
   xmlns:svg="http://www.w3.org/2000/svg"
   xmlns="http://www.w3.org/2000/svg"
   xmlns:sodipodi="http://sodipodi.sourceforge.net/DTD/sodipodi-0.dtd"
   xmlns:inkscape="http://www.inkscape.org/namespaces/inkscape"
   width="260"
   height="260"
   viewBox="0 0 68.791664 68.791664"
   version="1.1"
   id="svg8"
   inkscape:version="1.0.2 (e86c870879, 2021-01-15)"
   sodipodi:docname="TDy.svg"
   inkscape:export-filename="E:\CESI\Stage\SitePortfolio\images\LOGO\TDw.png"
   inkscape:export-xdpi="112.75306"
   inkscape:export-ydpi="112.75306">
  <defs
     id="defs2" />
  <sodipodi:namedview
     id="base"
     pagecolor="#000000"
     bordercolor="#666666"
     borderopacity="1.0"
     inkscape:pageopacity="0"
     inkscape:pageshadow="2"
     inkscape:zoom="2.8"
     inkscape:cx="107.21982"
     inkscape:cy="123.79632"
     inkscape:document-units="px"
     inkscape:current-layer="layer1"
     inkscape:document-rotation="0"
     showgrid="false"
     inkscape:snap-global="false"
     inkscape:window-width="1920"
     inkscape:window-height="1017"
     inkscape:window-x="-8"
     inkscape:window-y="-8"
     inkscape:window-maximized="1"
     units="px" />
  <metadata
     id="metadata5">
    <rdf:RDF>
      <cc:Work
         rdf:about="">
        <dc:format>image/svg+xml</dc:format>
        <dc:type
           rdf:resource="http://purl.org/dc/dcmitype/StillImage" />
        <dc:title></dc:title>
      </cc:Work>
    </rdf:RDF>
  </metadata>
  <g
     inkscape:label="Calque 1"
     inkscape:groupmode="layer"
     id="layer1">
    <rect
       style="fill:#ffff00;stroke-width:0.144709;fill-opacity:1"
       id="rect98"
       width="5.0828919"
       height="40.658871"
       x="15.886135"
       y="16.634834" />
    <rect
       style="fill:#ffff00;stroke-width:0.106548;fill-opacity:1"
       id="rect98-7"
       width="5.9773784"
       height="18.744198"
       x="10.887983"
       y="-34.718288"
       transform="rotate(90)" />
    <rect
       style="fill:#ffff00;stroke-width:0.110865;fill-opacity:1"
       id="rect98-7-2"
       width="3.9001269"
       height="31.103321"
       x="-34.875546"
       y="-47.022896"
       transform="scale(-1)" />
    <rect
       style="fill:#ffff00;stroke-width:0.0402581;fill-opacity:1"
       id="rect98-7-1"
       width="5.9773784"
       height="2.6760287"
       x="10.887983"
       y="-16.891619"
       transform="rotate(90)" />
    <path
       id="path160"
       style="fill:#ffff00;stroke-width:1.03171;fill-opacity:1"
       d="m 126.58203,41.181641 v 20.496093 a 85.89942,66.124874 0 0 1 74.39063,33.0625 85.89942,66.124874 0 0 1 8.46484,15.617186 h 12.32227 A 97.373416,87.680779 0 0 0 210.91016,85.021484 97.373416,87.680779 0 0 0 126.58203,41.181641 Z m 83.64258,101.675779 a 85.89942,66.124874 0 0 1 -9.25195,18.00781 85.89942,66.124874 0 0 1 -74.39063,33.0625 v 22.61524 a 97.373416,87.680779 0 0 0 84.32813,-43.83985 97.373416,87.680779 0 0 0 11.79492,-29.8457 z"
       transform="scale(0.26458332)" />
    <rect
       style="fill:#ffff00;stroke-width:0.0755449;fill-opacity:1"
       id="rect98-2"
       width="5.9773784"
       height="9.4231339"
       x="51.316322"
       y="-33.723072"
       transform="rotate(90)" />
    <rect
       style="fill:#ffff00;stroke-width:0.142802;fill-opacity:1"
       id="rect205"
       width="29.172472"
       height="2.8256352"
       x="33.474087"
       y="31.862959" />
    <path
       sodipodi:type="star"
       style="fill:#ffff00;stroke-width:0.264583;fill-opacity:1"
       id="path211"
       sodipodi:sides="3"
       sodipodi:cx="171.353"
       sodipodi:cy="132.27921"
       sodipodi:r1="4.3095913"
       sodipodi:r2="2.1547956"
       sodipodi:arg1="2.0899424"
       sodipodi:arg2="3.13714"
       inkscape:flatsided="false"
       inkscape:rounded="0"
       inkscape:randomized="0"
       inkscape:transform-center-x="-0.3937783"
       inkscape:transform-center-y="-0.0022391059"
       transform="matrix(0.35495203,0.00406186,-0.00212814,0.6774725,2.8687576,-57.008435)"
       d="m 169.21484,136.02098 -0.0166,-3.73218 -0.0166,-3.73218 3.24047,1.8517 3.24048,1.8517 -3.22386,1.88048 z" />
    <rect
       style="fill:#ffff00;stroke-width:0.0727239;fill-opacity:1"
       id="rect205-2"
       width="7.5659189"
       height="2.8256352"
       x="27.094135"
       y="31.862959" />
    <rect
       style="fill:#ffff00;stroke-width:0.0511267;fill-opacity:1"
       id="rect205-2-6"
       width="3.1884665"
       height="3.3138909"
       x="4.8778543"
       y="35.648033"
       transform="matrix(1,0,0.52245969,0.85266399,0,0)" />
    <rect
       style="fill:#ffff00;stroke-width:0.0521352;fill-opacity:1"
       id="rect205-2-6-9"
       width="3.1884665"
       height="3.4458773"
       x="44.450539"
       y="-41.691849"
       transform="matrix(1,0,0.50244827,-0.86460727,0,0)" />
    <path
       id="path274"
       style="fill:#ffff00;stroke-width:0.430614;fill-opacity:1"
       d="m 14.341865,10.887908 a 8.019085,5.3796376 0.18058697 0 0 -6.8261617,2.617815 8.019085,5.3796376 0.18058697 0 0 -0.1038099,5.379176 8.019085,5.3796376 0.18058697 0 0 6.8921966,2.761778 l 0.02804,-1.454149 a 6.0522726,1.6675347 0.04413674 0 1 -4.9711381,-0.854149 6.0522726,1.6675347 0.04413674 0 1 0.078366,-1.667545 6.0522726,1.6675347 0.04413674 0 1 4.9571931,-0.810063 l 0.01133,-0.593296 0.104033,-5.378766 a 8.019085,5.3796376 0.18058697 0 0 -0.170043,-8.01e-4 z" />
  </g>
</svg>
